<?xml version="1.0" standalone="no"?><!DOCTYPE svg PUBLIC "-//W3C//DTD SVG 1.1//EN" "http://www.w3.org/Graphics/SVG/1.1/DTD/svg11.dtd">
<svg t="1711534759180"
     class="icon"
     viewBox="0 0 1259 1024"
     version="1.1"
     xmlns="http://www.w3.org/2000/svg"
     p-id="9198"
     width="245.8984375"
     height="200"><path d="M1258.975776 0.014322L167.391776 326.749091C71.092811 354.762294 0 418.150042 0 515.508811c0.34372 91.400951 64.791273 160.402797 151.279888 185.608951 15.753846 4.554294 1108.039608 322.882238 1108.039609 322.882238z" fill="#D7141C" p-id="9199"></path><path d="M374.368671 448.970294c-3.49449 16.81365-15.753846 27.669483-46.230377 27.669482h-31.507693l11.901315-55.338965h31.163972c32.93986 0 38.525315 9.81035 34.672783 27.669483m-12.259356 102.614825c-4.554294 21.009902-19.96442 30.46221-56.384448 30.46221h-31.507692l12.88951-60.5807h31.507693c36.420028-0.358042 47.633902 9.108587 43.423328 30.075525m541.832056-177.159161c-48.321343 0-60.236979 34.372028-60.236979 34.372028l-51.830154 122.922965h-1.045482l-13.304839-157.237706h-81.633567a62.800559 62.800559 0 0 0-54.980923 35.718265l-61.984224 121.863161h-1.045482l-0.34372-157.237706h-55.324644c-36.763748 0-44.468811 19.606378-46.230377 31.163972-10.512112-20.30814-39.928839-31.163972-91.758993-31.163972h-131.329791c-42.377846 0-46.230378 31.865734-46.230377 31.865734l-47.948979 220.224448h185.608951c54.279161 0 71.794573-5.599776 91.400951-19.606378a75.475245 75.475245 0 0 0 28.371245-45.528615c9.108587-43.079608-21.711664-60.236979-56.384448-62.342266v-1.045482c31.865734-7.361343 58.833455-21.367944 68.987525-49.724868l3.852531 177.903889h88.608224a77.981538 77.981538 0 0 0 69.689287-46.230378l54.27916-106.811077h1.045483l12.603077 153.385175h79.141594a83.065734 83.065734 0 0 0 76.692588-49.724867l69.689286-155.490462-43.423328 205.215329h47.261538c61.282462 0 69.345566-48.693706 69.345567-48.693706l9.452307-44.826854h67.942042c52.173874 0 59.878937-39.928839 59.878937-39.928839l2.864336-13.304839h-119.414154l11.213874-52.173874h74.945343c51.128392 0 58.489734-37.823552 58.489734-37.823553l3.150769-15.052083H903.869762z" fill="#FFFFFF" p-id="9200"></path></svg>