<svg t="1711535800281" class="icon" viewBox="0 0 1024 1024" version="1.1" xmlns="http://www.w3.org/2000/svg" p-id="19066" width="200" height="200"><path d="M1006.933333 341.333333H17.066667c-10.24 0-17.066667 6.826667-17.066667 17.066667v522.24C0 959.146667 64.853333 1024 146.773333 1024h730.453334c81.92 0 146.773333-64.853333 146.773333-143.36V358.4c0-10.24-6.826667-17.066667-17.066667-17.066667zM512 795.306667c0 71.68-61.44 129.706667-136.533333 129.706666s-136.533333-58.026667-136.533334-129.706666c0-10.24 6.826667-17.066667 17.066667-17.066667s17.066667 6.826667 17.066667 17.066667c0 51.2 44.373333 95.573333 102.4 95.573333s102.4-40.96 102.4-95.573333-44.373333-95.573333-102.4-95.573334H303.786667c-10.24 0-17.066667-6.826667-17.066667-17.066666s6.826667-17.066667 17.066667-17.066667H375.466667c58.026667 0 102.4-40.96 102.4-95.573333S433.493333 477.866667 375.466667 477.866667s-102.4 40.96-102.4 95.573333c0 10.24-6.826667 17.066667-17.066667 17.066667S238.933333 580.266667 238.933333 573.44c0-71.68 61.44-129.706667 136.533334-129.706667s136.533333 58.026667 136.533333 129.706667c0 47.786667-27.306667 88.746667-68.266667 112.64 40.96 17.066667 68.266667 61.44 68.266667 109.226667z m238.933333 109.226666c0 10.24-6.826667 17.066667-17.066666 17.066667s-17.066667-6.826667-17.066667-17.066667V501.76l-71.68 71.68c-6.826667 6.826667-17.066667 6.826667-23.893333 0s-6.826667-17.066667 0-23.893333l102.4-102.4c3.413333-3.413333 13.653333-6.826667 17.066666-3.413334 6.826667 3.413333 10.24 10.24 10.24 17.066667v443.733333zM221.866667 204.8c10.24 0 17.066667-6.826667 17.066666-17.066667v-170.666666c0-10.24-6.826667-17.066667-17.066666-17.066667S204.8 6.826667 204.8 17.066667v170.666666c0 10.24 6.826667 17.066667 17.066667 17.066667zM802.133333 204.8c10.24 0 17.066667-6.826667 17.066667-17.066667v-170.666666c0-10.24-6.826667-17.066667-17.066667-17.066667s-17.066667 6.826667-17.066666 17.066667v170.666666c0 10.24 6.826667 17.066667 17.066666 17.066667z" fill="#1296db" p-id="19067"></path><path d="M877.226667 102.4H853.333333v85.333333c0 27.306667-23.893333 51.2-51.2 51.2S750.933333 215.04 750.933333 187.733333V102.4H273.066667v85.333333C273.066667 215.04 249.173333 238.933333 221.866667 238.933333S170.666667 215.04 170.666667 187.733333V102.4h-23.893334C64.853333 102.4 0 167.253333 0 245.76v44.373333c0 10.24 6.826667 17.066667 17.066667 17.066667h989.866666c10.24 0 17.066667-6.826667 17.066667-17.066667V245.76C1024 167.253333 959.146667 102.4 877.226667 102.4z" fill="#1296db" p-id="19068"></path></svg>