<svg t="1711535970735" class="icon" viewBox="0 0 1024 1024" version="1.1" xmlns="http://www.w3.org/2000/svg" p-id="21326" width="200" height="200"><path d="M1024 866.4h-352v-220.4H320V768H0v-11.6h308.4v-122h375.2v220.4H1024z" fill="#4A555F" p-id="21327"></path><path d="M0 781.6h305.6v174H0z" fill="#FFD552" p-id="21328"></path><path d="M689.6 888.4H1024v67.2h-334.4z" fill="#E0E0E0" p-id="21329"></path><path d="M333.6 659.6h324.4v296H333.6z" fill="#FFD552" p-id="21330"></path><path d="M333.6 659.6h324.4v296H333.6z" fill="#F68F6F" p-id="21331"></path><path d="M618 619.2h-215.6V596c0-29.6 24.4-54 54-54H564c29.6 0 54 24.4 54 54v23.2z m-204-12h192V596c0-23.2-18.8-42.4-42.4-42.4H456c-23.2 0-42.4 18.8-42.4 42.4v11.2z" fill="#4A555F" p-id="21332"></path><path d="M428 593.6c1.2-14.8 13.6-26.4 28.4-26.4H564c15.2 0 27.2 11.6 28.4 26.4H428z" fill="#FFD552" p-id="21333"></path><path d="M536.8 553.6h-47.6v-100.8h47.6v100.8z m-36-11.6h24.4v-77.2h-24.4v77.2z" fill="#4A555F" p-id="21334"></path><path d="M559.2 464.8h-94.8c-50.8 0-92.4-41.6-92.4-92.4V186.4h279.2v186c0.4 50.8-41.2 92.4-92 92.4zM384 198v174.4c0 44.4 36 80.8 80.8 80.8h94.8c44.4 0 80.8-36 80.8-80.8V198H384z" fill="#4A555F" p-id="21335"></path><path d="M397.6 211.6v160.8c0 36.8 30 67.2 67.2 67.2h94.8c36.8 0 67.2-30 67.2-67.2V211.6H397.6z m148.4 125.2l8 47.2-42-22.4-42.4 22.4 8-47.2-34-33.2 47.2-6.8 21.2-42.8 21.2 42.8 47.2 6.8-34.4 33.2z" fill="#FFD552" p-id="21336"></path><path d="M672.8 357.6h-27.2v-11.6h27.2c17.2 0 31.2-11.6 31.2-26.4V245.2c0-14.4-14-26.4-31.2-26.4h-27.2v-11.6h27.2c23.6 0 42.8 17.2 42.8 38V320c0 20.8-19.2 37.6-42.8 37.6zM378 357.6h-27.2c-23.6 0-42.8-17.2-42.8-38V245.2c0-20.8 19.2-38 42.8-38h27.2v11.6h-27.2c-17.2 0-31.2 11.6-31.2 26.4V320c0 14.4 14 26.4 31.2 26.4h27.2v11.2zM562 394.4L512 368l-50 26.4 9.6-55.6-40.4-39.6 56-8 24.8-50.8 24.8 50.8 56 8-40.4 39.6 9.6 55.6z m-105.6-86.8l28 27.2-6.4 38.4 34.4-18 34.4 18-6.4-38.4 28-27.2-38.4-5.6-17.2-34.8-17.2 34.8-39.2 5.6zM504.4 68.4h11.6v78.8h-11.6zM760 276.8h78.8v11.6H760zM191.2 276.8h78.8v11.6H191.2zM682 169.6l-8.8-8 8-8.8 8.8 8-8 8.8z m16-17.2l-8.8-8 8-8.8 8.8 8-8 8.8zM336.4 169.6l-8-8.8 8.8-8 8 8.8-8.8 8z m-15.6-17.2l-8-8.8 8.8-8 8 8.8-8.8 8zM319.2 439.6l-8.8-8 8-8.8 8.8 8-8 8.8z m16-17.2l-8.8-8 8-8.8 8.8 8-8 8.8zM695.2 439.6l-8-8.8 8.8-8 8 8.8-8.8 8z m-16-17.2l-8-8.8 8.8-8 8 8.8-8.8 8z" fill="#4A555F" p-id="21337"></path></svg>