<?xml version="1.0" standalone="no"?><!DOCTYPE svg PUBLIC "-//W3C//DTD SVG 1.1//EN" "http://www.w3.org/Graphics/SVG/1.1/DTD/svg11.dtd"><svg t="1713518288457" class="icon" viewBox="0 0 1024 1024" version="1.1" xmlns="http://www.w3.org/2000/svg" p-id="8915" xmlns:xlink="http://www.w3.org/1999/xlink" width="200" height="200"><path d="M853.333333 192v42.666667a21.333333 21.333333 0 0 1-21.333333 21.333333h-640a21.333333 21.333333 0 0 1-21.333333-21.333333v-42.666667a21.333333 21.333333 0 0 1 21.333333-21.333333H384V128a42.666667 42.666667 0 0 1 42.666667-42.666667h170.666666a42.666667 42.666667 0 0 1 42.666667 42.666667v42.666667h192a21.333333 21.333333 0 0 1 21.333333 21.333333zM250.453333 859.306667a85.333333 85.333333 0 0 0 85.333334 79.36h353.28a85.333333 85.333333 0 0 0 85.333333-79.36L810.666667 341.333333H213.333333z" p-id="8916" fill="#f0331a"></path></svg>