<?xml version="1.0" standalone="no"?><!DOCTYPE svg PUBLIC "-//W3C//DTD SVG 1.1//EN" "http://www.w3.org/Graphics/SVG/1.1/DTD/svg11.dtd">
<svg t="1711530086700"
     class="icon"
     viewBox="0 0 1024 1024"
     version="1.1"
     xmlns="http://www.w3.org/2000/svg"
     p-id="8291"
     width="200"
     height="200"><path d="M798.909987 378.24774c0-157.928892-129.560798-285.930171-289.415552-285.930171-159.851685 0-289.413506 128.001279-289.413506 285.930171 0 91.190909 43.35032 172.20913 110.62247 224.580918-120.626311 60.751642-205.53412 181.700295-214.94035 322.271868l43.287899 0c10.154267-131.637086 95.573729-248.180406 214.789924-294.523897 37.879726 17.999956 90.806145 33.604352 135.653563 33.604352s87.152942-10.346649 125.031645-28.346605l29.692253-17.228383 24.049742-15.776312C755.558643 550.45687 798.909987 469.438649 798.909987 378.24774zM754.340909 644.812865l-0.214894 0.297782c-4.724605-4.488221-11.028171-7.353478-18.08489-7.353478-14.556531 0-26.333762 5.559623-26.333762 20.094664 0 10.04682 5.814426 18.467607 14.065344 22.914896l-0.170892 0.25685C802.736129 737.585805 842.647117 823.219137 850.514295 925.100526l52.714596 0C895.661541 811.934117 839.077825 711.166085 754.340909 644.812865z" fill="#5D5D5D" p-id="8292"></path></svg>