<?xml version="1.0" standalone="no"?><!DOCTYPE svg PUBLIC "-//W3C//DTD SVG 1.1//EN" "http://www.w3.org/Graphics/SVG/1.1/DTD/svg11.dtd">
<svg t="1711530164709"
     class="icon"
     viewBox="0 0 1024 1024"
     version="1.1"
     xmlns="http://www.w3.org/2000/svg"
     p-id="12145"
     width="200"
     height="200"><path d="M587.861333 157.397333C587.861333 117.674667 553.898667 85.333333 512 85.333333c-41.813333 0-75.861333 32.256-75.861333 72.064 0 4.053333 0.384 8.021333 1.024 11.904-104.704 34.688-190.634667 141.184-190.634667 267.178667v99.242667s0 142.848-36.949333 144.085333c-22.058667 0-38.912 16.128-38.912 36.053333 0 20.053333 16.981333 36.010667 37.930666 36.010667H815.36c21.077333 0 37.930667-16.128 37.930667-36.010667 0-20.053333-16.981333-36.053333-37.930667-36.053333-37.930667 0-37.930667-143.104-37.930667-143.104v-100.181333c0-126.165333-80.341333-232.746667-190.634666-267.306667 0.682667-3.84 1.024-7.808 1.024-11.818667z m37.930667 630.442667C625.664 847.573333 575.146667 896 512 896c-62.762667 0-113.664-48.213333-113.792-108.16h227.584z" fill="#000000" p-id="12146"></path></svg>